<?xml version="1.0" standalone="no"?>
<!DOCTYPE svg PUBLIC "-//W3C//DTD SVG 20010904//EN"
 "http://www.w3.org/TR/2001/REC-SVG-20010904/DTD/svg10.dtd">
<svg version="1.0" xmlns="http://www.w3.org/2000/svg"
 width="1439.000000pt" height="1439.000000pt" viewBox="0 0 1439.000000 1439.000000"
 preserveAspectRatio="xMidYMid meet">

<g transform="translate(0.000000,1439.000000) scale(0.100000,-0.100000)"
fill="#000000" stroke="none">
<path d="M0 7195 l0 -7195 7195 0 7195 0 0 7195 0 7195 -7195 0 -7195 0 0
-7195z m9157 115 c1075 -2005 1958 -3653 1960 -3662 5 -17 -34 -18 -725 -18
l-729 0 -1239 2305 c-681 1268 -1241 2305 -1244 2305 -3 0 -558 -1036 -1233
-2302 l-1227 -2303 -715 -3 c-712 -2 -737 -1 -704 28 16 15 68 118 61 124 -4
4 0 13 8 19 22 17 82 126 75 137 -3 5 2 17 12 27 28 28 75 112 68 123 -3 5 2
17 12 27 22 22 74 109 72 120 -3 19 2 34 19 51 28 28 63 93 56 104 -4 6 -2 8
3 5 6 -4 14 0 17 9 4 9 2 13 -5 8 -8 -5 -8 -1 0 14 6 11 14 22 19 24 4 1 23
29 41 61 18 33 27 56 21 52 -7 -4 -5 6 4 23 9 17 19 32 24 34 4 1 20 25 36 52
16 27 23 45 16 41 -7 -4 -6 4 4 23 9 17 19 32 24 34 4 1 23 29 41 61 18 33 27
56 21 52 -7 -4 -5 6 4 23 9 17 19 32 24 34 4 1 20 25 36 52 16 27 23 45 16 41
-7 -4 -5 5 4 24 9 17 20 31 25 31 9 0 34 54 31 65 -1 4 7 13 17 22 10 8 12 11
5 8 -9 -5 -6 7 7 33 11 22 24 42 29 44 4 1 20 25 36 52 16 27 23 45 16 41 -7
-4 -5 5 4 24 9 17 20 31 25 31 9 0 35 56 30 64 -2 3 5 12 16 21 11 9 14 13 7
10 -9 -5 -6 8 7 34 12 23 26 41 31 41 9 0 26 39 22 53 -1 4 3 7 8 7 5 0 9 3 9
8 -3 19 2 33 11 27 5 -3 7 0 4 8 -3 8 6 27 20 42 24 26 30 39 27 58 0 4 4 7 9
7 5 0 9 3 9 8 -3 20 2 32 13 26 7 -4 8 -3 4 4 -8 14 9 49 36 75 10 10 16 22
13 28 -4 5 -1 9 5 9 6 0 8 5 5 10 -3 6 -1 10 4 10 6 0 10 3 10 8 -3 19 2 33
11 27 5 -3 7 0 4 9 -3 8 4 24 15 35 12 12 18 21 15 21 -3 0 2 7 10 16 9 8 14
20 11 25 -4 5 -1 9 4 9 6 0 10 3 9 8 -4 15 14 52 23 47 5 -3 6 0 3 8 -3 8 6
27 20 42 14 15 23 31 20 36 -3 5 0 9 5 9 6 0 10 3 9 8 -4 16 14 52 24 46 7 -4
8 -2 4 4 -8 14 20 72 35 72 6 0 7 4 4 10 -3 6 -1 10 5 10 6 0 8 4 5 10 -3 6
-1 10 4 10 6 0 10 3 9 8 -4 15 14 52 23 47 5 -3 6 1 3 9 -3 8 3 23 14 34 11
11 18 23 14 26 -3 3 0 6 7 6 7 0 9 5 6 10 -3 6 -1 10 4 10 6 0 10 3 9 8 -5 14
24 72 33 66 5 -3 6 2 3 10 -3 8 3 23 14 34 11 11 18 23 14 26 -3 3 0 6 6 6 7
0 11 3 10 8 -5 14 24 72 33 66 5 -3 6 2 3 10 -3 8 3 23 14 34 11 11 18 23 15
26 -4 3 -1 6 5 6 7 0 11 3 9 8 -4 14 36 92 44 86 5 -3 6 2 3 10 -3 8 3 23 14
34 11 11 18 23 15 26 -4 3 -1 6 5 6 7 0 11 3 9 8 -4 14 36 92 44 86 5 -3 6 2
3 10 -4 9 1 18 10 22 9 3 13 10 10 15 -3 5 0 9 5 9 6 0 10 3 8 8 -4 14 36 92
44 86 5 -3 6 2 3 10 -4 9 1 18 10 22 9 3 13 10 10 15 -3 5 0 9 6 9 6 0 8 5 5
10 -3 6 -1 10 4 10 6 0 10 3 8 8 -4 14 36 92 44 86 5 -3 6 2 3 10 -4 9 1 18
10 22 9 3 13 10 10 15 -3 5 0 9 5 9 6 0 10 3 8 8 -4 14 36 92 44 86 5 -3 6 2
3 10 -4 9 1 18 10 22 9 3 13 10 10 15 -3 5 0 9 6 9 6 0 8 5 5 10 -3 6 -1 10 6
10 7 0 10 3 6 6 -8 9 41 104 54 104 5 0 7 5 4 10 -3 6 -1 10 5 10 6 0 8 5 5
10 -3 6 -1 10 6 10 7 0 10 3 6 6 -8 9 41 104 54 104 5 0 7 5 4 10 -3 6 -1 10
5 10 6 0 8 5 5 10 -3 6 -1 10 6 10 7 0 10 3 6 6 -8 9 51 124 64 124 5 0 7 5 4
10 -3 6 -1 10 5 10 6 0 8 5 5 10 -3 6 -1 10 6 10 7 0 10 3 6 6 -8 9 41 104 54
104 5 0 7 5 4 10 -3 6 -1 10 5 10 6 0 8 5 5 10 -3 6 -1 10 6 10 7 0 10 3 6 6
-8 9 41 104 54 104 5 0 7 5 4 10 -3 6 -1 10 5 10 6 0 8 5 5 10 -3 6 -1 10 5
10 6 0 8 5 5 10 -3 6 -1 10 6 10 7 0 10 3 6 6 -8 9 31 84 44 84 6 0 7 5 4 10
-3 6 -1 10 5 10 6 0 8 5 5 10 -3 6 -1 10 5 10 6 0 8 5 5 10 -3 6 -1 10 6 10 7
0 10 3 6 6 -8 9 41 104 54 104 5 0 7 5 4 10 -3 6 -1 10 5 10 6 0 8 5 5 10 -3
6 -1 10 6 10 7 0 10 3 6 6 -8 9 41 104 54 104 5 0 7 5 4 10 -3 6 -1 10 5 10 6
0 8 5 5 10 -3 6 -1 10 5 10 6 0 8 5 5 10 -3 6 -1 10 6 10 7 0 10 3 6 6 -8 9
41 104 54 104 5 0 7 5 4 10 -3 6 -1 10 5 10 6 0 8 5 5 10 -3 6 -1 10 6 10 7 0
10 3 6 6 -8 9 41 104 54 104 5 0 7 5 4 10 -3 6 -1 10 5 10 6 0 8 5 5 10 -3 6
-1 10 5 10 6 0 8 5 5 10 -3 6 -1 10 6 10 7 0 10 3 6 6 -8 9 41 104 54 104 5 0
7 5 4 10 -3 6 -1 10 5 10 6 0 8 5 5 10 -3 6 -1 10 6 10 7 0 9 3 6 6 -8 9 53
124 65 124 5 0 6 5 3 10 -3 6 -1 10 6 10 7 0 9 3 6 6 -8 9 53 124 65 124 5 0
6 5 3 10 -3 6 -1 10 5 10 6 0 8 5 5 10 -3 6 -1 10 6 10 7 0 9 3 6 7 -8 7 54
123 66 123 4 0 5 5 2 10 -3 6 -1 10 6 10 7 0 9 3 6 6 -8 9 53 124 65 124 5 0
6 5 3 10 -3 6 -1 10 5 10 6 0 8 5 5 10 -3 6 -1 10 6 10 7 0 9 3 6 7 -8 7 54
123 66 123 4 0 5 5 2 10 -3 6 -1 10 6 10 7 0 9 3 6 7 -8 7 54 123 66 123 4 0
5 5 2 10 -3 6 -1 10 6 10 7 0 9 3 6 7 -8 7 64 143 76 143 4 0 5 5 2 10 -3 6
-1 10 6 10 7 0 9 3 6 7 -8 7 54 123 66 123 4 0 5 5 2 10 -3 6 -1 10 6 10 7 0
9 3 6 7 -8 7 60 134 77 145 6 4 7 8 3 8 -5 0 6 27 24 60 19 36 38 60 46 58 8
-2 894 -1643 1970 -3648z"/>
</g>
</svg>
